<mxfile host="app.diagrams.net" modified="2020-12-11T10:11:00.157Z" agent="5.0 (Windows NT 10.0; Win64; x64) AppleWebKit/537.36 (KHTML, like Gecko) Chrome/87.0.4280.88 Safari/537.36" etag="nsuYFb477pG5jW_cD6-d" version="14.0.1" type="github">
  <diagram id="u4OLCe4_5poDL3rUc6o_" name="Page-1">
    <mxGraphModel dx="1209" dy="836" grid="1" gridSize="10" guides="1" tooltips="1" connect="1" arrows="1" fold="1" page="1" pageScale="1" pageWidth="827" pageHeight="1169" math="0" shadow="0">
      <root>
        <mxCell id="0" />
        <mxCell id="1" parent="0" />
        <mxCell id="B-zAyvG-0LGMVqdCT4fb-1" value="&lt;font style=&quot;font-size: 14px&quot;&gt;&lt;b&gt;App&lt;/b&gt;&lt;/font&gt;" style="rounded=1;whiteSpace=wrap;html=1;" vertex="1" parent="1">
          <mxGeometry x="330" y="250" width="240" height="50" as="geometry" />
        </mxCell>
        <mxCell id="B-zAyvG-0LGMVqdCT4fb-3" value="&lt;font style=&quot;font-size: 14px&quot;&gt;&lt;b&gt;User-lib (libVulkan...)&lt;/b&gt;&lt;/font&gt;" style="rounded=1;whiteSpace=wrap;html=1;" vertex="1" parent="1">
          <mxGeometry x="330" y="310" width="240" height="50" as="geometry" />
        </mxCell>
        <mxCell id="B-zAyvG-0LGMVqdCT4fb-4" value="Driver (Vulkan...)" style="rounded=1;whiteSpace=wrap;html=1;" vertex="1" parent="1">
          <mxGeometry x="330" y="370" width="240" height="50" as="geometry" />
        </mxCell>
        <mxCell id="B-zAyvG-0LGMVqdCT4fb-5" value="GPU-Hardware" style="rounded=1;whiteSpace=wrap;html=1;" vertex="1" parent="1">
          <mxGeometry x="330" y="430" width="240" height="50" as="geometry" />
        </mxCell>
        <mxCell id="B-zAyvG-0LGMVqdCT4fb-6" value="&lt;font style=&quot;font-size: 14px&quot;&gt;&lt;b&gt;SLI/CrossFire&lt;/b&gt;&lt;/font&gt;" style="text;html=1;strokeColor=none;fillColor=none;align=center;verticalAlign=middle;whiteSpace=wrap;rounded=0;" vertex="1" parent="1">
          <mxGeometry x="196" y="445" width="40" height="20" as="geometry" />
        </mxCell>
        <mxCell id="B-zAyvG-0LGMVqdCT4fb-8" value="&lt;font style=&quot;font-size: 14px&quot;&gt;&lt;b&gt;KHR_device_group&lt;br&gt;KHR_device_group_creation&lt;/b&gt;&lt;/font&gt;" style="text;html=1;strokeColor=none;fillColor=none;align=center;verticalAlign=middle;whiteSpace=wrap;rounded=0;" vertex="1" parent="1">
          <mxGeometry x="204" y="385" width="40" height="20" as="geometry" />
        </mxCell>
        <mxCell id="B-zAyvG-0LGMVqdCT4fb-10" value="&lt;font style=&quot;font-size: 14px&quot;&gt;&lt;b&gt;SLI/CrossFire&lt;/b&gt;&lt;/font&gt;" style="text;html=1;strokeColor=none;fillColor=none;align=center;verticalAlign=middle;whiteSpace=wrap;rounded=0;" vertex="1" parent="1">
          <mxGeometry x="196" y="325" width="40" height="20" as="geometry" />
        </mxCell>
      </root>
    </mxGraphModel>
  </diagram>
</mxfile>
